{
  "accessors": [
    {
      "bufferView": 2,
      "componentType": 5126,
      "count": 973,
      "max": [
        1.3631781339645386,
        4.921309471130371,
        1.3536326885223389
      ],
      "min": [
        -1.3440872430801392,
        -0.1254015564918518,
        -1.3536326885223389
      ],
      "type": "VEC3"
    },
    {
      "bufferView": 2,
      "byteOffset": 11676,
      "componentType": 5126,
      "count": 973,
      "max": [
        1.0,
        1.0,
        1.0
      ],
      "min": [
        -1.0,
        -1.0,
        -1.0
      ],
      "type": "VEC3"
    },
    {
      "bufferView": 3,
      "componentType": 5126,
      "count": 973,
      "max": [
        1.0,
        0.999965250492096,
        1.0,
        1.0
      ],
      "min": [
        -1.0,
        -0.9995480179786682,
        -1.0,
        1.0
      ],
      "type": "VEC4"
    },
    {
      "bufferView": 1,
      "componentType": 5126,
      "count": 973,
      "max": [
        0.9983012676239014,
        0.99853515625
      ],
      "min": [
        0.00146484375,
        0.00146484375
      ],
      "type": "VEC2"
    },
    {
      "bufferView": 0,
      "componentType": 5125,
      "count": 2952,
      "type": "SCALAR"
    },
    {
      "bufferView": 2,
      "byteOffset": 23352,
      "componentType": 5126,
      "count": 688,
      "max": [
        0.1409408003091812,
        0.7432580590248108,
        0.9265894889831543
      ],
      "min": [
        -0.14237189292907715,
        -0.016159098595380783,
        0.5568823218345642
      ],
      "type": "VEC3"
    },
    {
      "bufferView": 2,
      "byteOffset": 31608,
      "componentType": 5126,
      "count": 688,
      "max": [
        1.0,
        1.0,
        1.0
      ],
      "min": [
        -1.0,
        -1.0,
        -1.0
      ],
      "type": "VEC3"
    },
    {
      "bufferView": 3,
      "byteOffset": 15568,
      "componentType": 5126,
      "count": 688,
      "max": [
        1.0,
        1.0,
        1.0,
        1.0
      ],
      "min": [
        -1.0,
        -1.0,
        -1.0,
        1.0
      ],
      "type": "VEC4"
    },
    {
      "bufferView": 1,
      "byteOffset": 7784,
      "componentType": 5126,
      "count": 688,
      "max": [
        0.9957794547080994,
        0.99853515625
      ],
      "min": [
        0.00146484375,
        0.00146484375
      ],
      "type": "VEC2"
    },
    {
      "bufferView": 0,
      "byteOffset": 11808,
      "componentType": 5125,
      "count": 1284,
      "type": "SCALAR"
    },
    {
      "bufferView": 2,
      "byteOffset": 39864,
      "componentType": 5126,
      "count": 1640,
      "max": [
        0.6051676869392395,
        2.7715134620666504,
        0.6051676869392395
      ],
      "min": [
        -0.6051676869392395,
        0.794671893119812,
        -0.6051676869392395
      ],
      "type": "VEC3"
    },
    {
      "bufferView": 2,
      "byteOffset": 59544,
      "componentType": 5126,
      "count": 1640,
      "max": [
        1.0,
        1.0,
        1.0
      ],
      "min": [
        -1.0,
        -1.0,
        -1.0
      ],
      "type": "VEC3"
    },
    {
      "bufferView": 3,
      "byteOffset": 26576,
      "componentType": 5126,
      "count": 1640,
      "max": [
        1.0,
        1.0,
        1.0,
        1.0
      ],
      "min": [
        0.0,
        -1.0,
        -1.0,
        1.0
      ],
      "type": "VEC4"
    },
    {
      "bufferView": 1,
      "byteOffset": 13288,
      "componentType": 5126,
      "count": 1640,
      "max": [
        0.9576439261436462,
        0.9980080127716064
      ],
      "min": [
        0.0019114650785923004,
        0.00199203216470778
      ],
      "type": "VEC2"
    },
    {
      "bufferView": 0,
      "byteOffset": 16944,
      "componentType": 5125,
      "count": 2544,
      "type": "SCALAR"
    },
    {
      "bufferView": 2,
      "byteOffset": 79224,
      "componentType": 5126,
      "count": 3642,
      "max": [
        0.5999202728271484,
        4.122536659240723,
        0.5999203324317932
      ],
      "min": [
        -0.5999202728271484,
        3.3268227577209473,
        -0.599920392036438
      ],
      "type": "VEC3"
    },
    {
      "bufferView": 2,
      "byteOffset": 122928,
      "componentType": 5126,
      "count": 3642,
      "max": [
        1.0,
        1.0,
        1.0
      ],
      "min": [
        -1.0,
        -1.0,
        -1.0
      ],
      "type": "VEC3"
    },
    {
      "bufferView": 3,
      "byteOffset": 52816,
      "componentType": 5126,
      "count": 3642,
      "max": [
        1.0,
        1.0,
        1.0,
        1.0
      ],
      "min": [
        -1.0,
        -1.0,
        -1.0,
        1.0
      ],
      "type": "VEC4"
    },
    {
      "bufferView": 1,
      "byteOffset": 26408,
      "componentType": 5126,
      "count": 3642,
      "max": [
        0.9969391226768494,
        0.99853515625
      ],
      "min": [
        0.00146484375,
        0.0014647841453552246
      ],
      "type": "VEC2"
    },
    {
      "bufferView": 0,
      "byteOffset": 27120,
      "componentType": 5125,
      "count": 6444,
      "type": "SCALAR"
    }
  ],
  "asset": {
    "extras": {
      "author": "Fectar (https://sketchfab.com/fectar)",
      "license": "CC-BY-4.0 (http://creativecommons.org/licenses/by/4.0/)",
      "source": "https://sketchfab.com/3d-models/fectar-lighthouse-6fd7ceda588348dcb0562d1e5b2f1ade",
      "title": "Fectar Lighthouse"
    },
    "generator": "Sketchfab-12.66.0",
    "version": "2.0"
  },
  "bufferViews": [
    {
      "buffer": 0,
      "byteLength": 52896,
      "name": "floatBufferViews",
      "target": 34963
    },
    {
      "buffer": 0,
      "byteLength": 55544,
      "byteOffset": 52896,
      "byteStride": 8,
      "name": "floatBufferViews",
      "target": 34962
    },
    {
      "buffer": 0,
      "byteLength": 166632,
      "byteOffset": 108440,
      "byteStride": 12,
      "name": "floatBufferViews",
      "target": 34962
    },
    {
      "buffer": 0,
      "byteLength": 111088,
      "byteOffset": 275072,
      "byteStride": 16,
      "name": "floatBufferViews",
      "target": 34962
    }
  ],
  "buffers": [
    {
      "byteLength": 386160,
      "uri": "scene.bin"
    }
  ],
  "images": [
    {
      "uri": "textures/Base_M_baseColor.jpeg"
    },
    {
      "uri": "textures/Base_M_metallicRoughness.png"
    },
    {
      "uri": "textures/Base_M_normal.png"
    },
    {
      "uri": "textures/Stairs_M_baseColor.jpeg"
    },
    {
      "uri": "textures/Stairs_M_metallicRoughness.png"
    },
    {
      "uri": "textures/Stairs_M_normal.png"
    },
    {
      "uri": "textures/Windows_M_baseColor.jpeg"
    },
    {
      "uri": "textures/Windows_M_metallicRoughness.png"
    },
    {
      "uri": "textures/Windows_M_normal.png"
    },
    {
      "uri": "textures/Railing_M_baseColor.jpeg"
    },
    {
      "uri": "textures/Railing_M_metallicRoughness.png"
    },
    {
      "uri": "textures/Railing_M_normal.png"
    }
  ],
  "materials": [
    {
      "doubleSided": true,
      "name": "Base_M",
      "normalTexture": {
        "index": 2
      },
      "occlusionTexture": {
        "index": 1
      },
      "pbrMetallicRoughness": {
        "baseColorTexture": {
          "index": 0
        },
        "metallicRoughnessTexture": {
          "index": 1
        }
      }
    },
    {
      "doubleSided": true,
      "name": "Stairs_M",
      "normalTexture": {
        "index": 5
      },
      "occlusionTexture": {
        "index": 4
      },
      "pbrMetallicRoughness": {
        "baseColorTexture": {
          "index": 3
        },
        "metallicRoughnessTexture": {
          "index": 4
        }
      }
    },
    {
      "doubleSided": true,
      "name": "Windows_M",
      "normalTexture": {
        "index": 8
      },
      "occlusionTexture": {
        "index": 7
      },
      "pbrMetallicRoughness": {
        "baseColorTexture": {
          "index": 6
        },
        "metallicRoughnessTexture": {
          "index": 7
        }
      }
    },
    {
      "doubleSided": true,
      "name": "Railing_M",
      "normalTexture": {
        "index": 11
      },
      "occlusionTexture": {
        "index": 10
      },
      "pbrMetallicRoughness": {
        "baseColorTexture": {
          "index": 9
        },
        "metallicRoughnessTexture": {
          "index": 10
        }
      }
    }
  ],
  "meshes": [
    {
      "name": "Base_Base_M_0",
      "primitives": [
        {
          "attributes": {
            "NORMAL": 1,
            "POSITION": 0,
            "TANGENT": 2,
            "TEXCOORD_0": 3
          },
          "indices": 4,
          "material": 0,
          "mode": 4
        }
      ]
    },
    {
      "name": "StairsAndDoors_Stairs_M_0",
      "primitives": [
        {
          "attributes": {
            "NORMAL": 6,
            "POSITION": 5,
            "TANGENT": 7,
            "TEXCOORD_0": 8
          },
          "indices": 9,
          "material": 1,
          "mode": 4
        }
      ]
    },
    {
      "name": "Windows_Windows_M_0",
      "primitives": [
        {
          "attributes": {
            "NORMAL": 11,
            "POSITION": 10,
            "TANGENT": 12,
            "TEXCOORD_0": 13
          },
          "indices": 14,
          "material": 2,
          "mode": 4
        }
      ]
    },
    {
      "name": "Railing_Railing_M_0",
      "primitives": [
        {
          "attributes": {
            "NORMAL": 16,
            "POSITION": 15,
            "TANGENT": 17,
            "TEXCOORD_0": 18
          },
          "indices": 19,
          "material": 3,
          "mode": 4
        }
      ]
    }
  ],
  "nodes": [
    {
      "children": [
        1
      ],
      "matrix": [
        1.0,
        0.0,
        0.0,
        0.0,
        0.0,
        2.220446049250313e-16,
        -1.0,
        0.0,
        0.0,
        1.0,
        2.220446049250313e-16,
        0.0,
        0.0,
        0.0,
        0.0,
        1.0
      ],
      "name": "Sketchfab_model"
    },
    {
      "children": [
        2
      ],
      "matrix": [
        1.0,
        0.0,
        0.0,
        0.0,
        0.0,
        0.0,
        1.0,
        0.0,
        0.0,
        -1.0,
        0.0,
        0.0,
        0.0,
        0.0,
        0.0,
        1.0
      ],
      "name": "model.fbx"
    },
    {
      "children": [
        3
      ],
      "name": "RootNode"
    },
    {
      "children": [
        4,
        6,
        8,
        10
      ],
      "name": "Lighthouse"
    },
    {
      "children": [
        5
      ],
      "matrix": [
        1.0,
        0.0,
        0.0,
        0.0,
        0.0,
        1.0,
        0.0,
        0.0,
        0.0,
        0.0,
        1.0,
        0.0,
        0.0,
        0.12692494690418243,
        0.0,
        1.0
      ],
      "name": "Base"
    },
    {
      "mesh": 0,
      "name": "Base_Base_M_0"
    },
    {
      "children": [
        7
      ],
      "matrix": [
        1.0,
        0.0,
        0.0,
        0.0,
        0.0,
        1.0,
        0.0,
        0.0,
        0.0,
        0.0,
        1.0,
        0.0,
        0.0,
        0.12692494690418243,
        0.0,
        1.0
      ],
      "name": "StairsAndDoors"
    },
    {
      "mesh": 1,
      "name": "StairsAndDoors_Stairs_M_0"
    },
    {
      "children": [
        9
      ],
      "matrix": [
        1.0,
        0.0,
        0.0,
        0.0,
        0.0,
        1.0,
        0.0,
        0.0,
        0.0,
        0.0,
        1.0,
        0.0,
        0.0,
        0.12692494690418243,
        0.0,
        1.0
      ],
      "name": "Windows"
    },
    {
      "mesh": 2,
      "name": "Windows_Windows_M_0"
    },
    {
      "children": [
        11
      ],
      "matrix": [
        1.0,
        0.0,
        0.0,
        0.0,
        0.0,
        1.0,
        0.0,
        0.0,
        0.0,
        0.0,
        1.0,
        0.0,
        0.0,
        0.12692494690418243,
        0.0,
        1.0
      ],
      "name": "Railing"
    },
    {
      "mesh": 3,
      "name": "Railing_Railing_M_0"
    }
  ],
  "samplers": [
    {
      "magFilter": 9729,
      "minFilter": 9987,
      "wrapS": 10497,
      "wrapT": 10497
    }
  ],
  "scene": 0,
  "scenes": [
    {
      "name": "Sketchfab_Scene",
      "nodes": [
        0
      ]
    }
  ],
  "textures": [
    {
      "sampler": 0,
      "source": 0
    },
    {
      "sampler": 0,
      "source": 1
    },
    {
      "sampler": 0,
      "source": 2
    },
    {
      "sampler": 0,
      "source": 3
    },
    {
      "sampler": 0,
      "source": 4
    },
    {
      "sampler": 0,
      "source": 5
    },
    {
      "sampler": 0,
      "source": 6
    },
    {
      "sampler": 0,
      "source": 7
    },
    {
      "sampler": 0,
      "source": 8
    },
    {
      "sampler": 0,
      "source": 9
    },
    {
      "sampler": 0,
      "source": 10
    },
    {
      "sampler": 0,
      "source": 11
    }
  ]
}
