{
	"asset":{
		"generator":"Khronos glTF Blender I/O v4.2.60",
		"version":"2.0"
	},
	"scene":0,
	"scenes":[
		{
			"name":"Scene",
			"nodes":[
				7
			]
		}
	],
	"nodes":[
		{
			"name":"Cube"
		},
		{
			"mesh":0,
			"name":"Cylinder.002_0"
		},
		{
			"children":[
				1
			],
			"name":"Cylinder.002",
			"scale":[
				0.28262999653816223,
				0.28262999653816223,
				0.28262999653816223
			],
			"translation":[
				0,
				-0.03044999949634075,
				3.0269598960876465
			]
		},
		{
			"mesh":1,
			"name":"Cylinder.003_0"
		},
		{
			"mesh":2,
			"name":"Cylinder.003_1"
		},
		{
			"children":[
				3,
				4
			],
			"name":"Cylinder.003",
			"scale":[
				1.2588900327682495,
				1.2588900327682495,
				0.29427000880241394
			],
			"translation":[
				0,
				-0.0304500013589859,
				0.07812000066041946
			]
		},
		{
			"children":[
				0,
				2,
				5
			],
			"name":"Root"
		},
		{
			"children":[
				6
			],
			"name":"Sketchfab_model",
			"rotation":[
				-0.70710688829422,
				0,
				0,
				0.7071066498756409
			],
			"scale":[
				0.6094028353691101,
				0.6094028949737549,
				0.6094028949737549
			]
		}
	],
	"materials":[
		{
			"doubleSided":true,
			"name":"Material.003",
			"pbrMetallicRoughness":{
				"baseColorFactor":[
					0.5684521794319153,
					0.0010668252361938357,
					0.0010668252361938357,
					1
				],
				"metallicFactor":0,
				"roughnessFactor":0.6000000238418579
			}
		},
		{
			"doubleSided":true,
			"name":"Material.004",
			"pbrMetallicRoughness":{
				"baseColorFactor":[
					0.5612388253211975,
					0.001060763723216951,
					0.001060763723216951,
					1
				],
				"metallicFactor":0,
				"roughnessFactor":0.6000000238418579
			}
		}
	],
	"meshes":[
		{
			"name":"Cylinder.002_0",
			"primitives":[
				{
					"attributes":{
						"POSITION":0,
						"NORMAL":1
					},
					"indices":2,
					"material":0
				}
			]
		},
		{
			"name":"Cylinder.003_0",
			"primitives":[
				{
					"attributes":{
						"POSITION":3,
						"NORMAL":4
					},
					"indices":5,
					"material":1
				}
			]
		},
		{
			"name":"Cylinder.003_1",
			"primitives":[
				{
					"attributes":{
						"POSITION":6,
						"NORMAL":7
					},
					"indices":8,
					"material":0
				}
			]
		}
	],
	"accessors":[
		{
			"bufferView":0,
			"componentType":5126,
			"count":64,
			"max":[
				1,
				1,
				0.4857200086116791
			],
			"min":[
				-1,
				-1,
				-1
			],
			"type":"VEC3"
		},
		{
			"bufferView":1,
			"componentType":5126,
			"count":64,
			"type":"VEC3"
		},
		{
			"bufferView":2,
			"componentType":5123,
			"count":372,
			"type":"SCALAR"
		},
		{
			"bufferView":3,
			"componentType":5126,
			"count":66,
			"max":[
				1,
				1,
				8.903349876403809
			],
			"min":[
				-1,
				-1,
				-1
			],
			"type":"VEC3"
		},
		{
			"bufferView":4,
			"componentType":5126,
			"count":66,
			"type":"VEC3"
		},
		{
			"bufferView":5,
			"componentType":5123,
			"count":186,
			"type":"SCALAR"
		},
		{
			"bufferView":6,
			"componentType":5126,
			"count":224,
			"max":[
				1,
				1,
				8.903349876403809
			],
			"min":[
				-1,
				-1,
				-1
			],
			"type":"VEC3"
		},
		{
			"bufferView":7,
			"componentType":5126,
			"count":224,
			"type":"VEC3"
		},
		{
			"bufferView":8,
			"componentType":5123,
			"count":960,
			"type":"SCALAR"
		}
	],
	"bufferViews":[
		{
			"buffer":0,
			"byteLength":768,
			"byteOffset":0,
			"target":34962
		},
		{
			"buffer":0,
			"byteLength":768,
			"byteOffset":768,
			"target":34962
		},
		{
			"buffer":0,
			"byteLength":744,
			"byteOffset":1536,
			"target":34963
		},
		{
			"buffer":0,
			"byteLength":792,
			"byteOffset":2280,
			"target":34962
		},
		{
			"buffer":0,
			"byteLength":792,
			"byteOffset":3072,
			"target":34962
		},
		{
			"buffer":0,
			"byteLength":372,
			"byteOffset":3864,
			"target":34963
		},
		{
			"buffer":0,
			"byteLength":2688,
			"byteOffset":4236,
			"target":34962
		},
		{
			"buffer":0,
			"byteLength":2688,
			"byteOffset":6924,
			"target":34962
		},
		{
			"buffer":0,
			"byteLength":1920,
			"byteOffset":9612,
			"target":34963
		}
	],
	"buffers":[
		{
			"byteLength":11532,
			"uri":"scene.bin"
		}
	]
}
