{
	"asset":{
		"generator":"Khronos glTF Blender I/O v4.2.60",
		"version":"2.0"
	},
	"scene":0,
	"scenes":[
		{
			"name":"Scene",
			"nodes":[
				18
			]
		}
	],
	"nodes":[
		{
			"name":"helm",
			"scale":[
				1.1758003234863281,
				1.4274436235427856,
				1.4274436235427856
			],
			"translation":[
				0,
				-0.2322230190038681,
				0.9974803328514099
			]
		},
		{
			"name":"keel"
		},
		{
			"mesh":0,
			"name":"Laserhull_buttom_color_0"
		},
		{
			"mesh":1,
			"name":"Laserhull_Default_Material_0"
		},
		{
			"mesh":2,
			"name":"Laserhull_phongE2_0"
		},
		{
			"children":[
				2,
				3,
				4
			],
			"name":"Laserhull",
			"scale":[
				1,
				1,
				5.813459873199463
			],
			"translation":[
				0,
				0,
				-0.3797827959060669
			]
		},
		{
			"name":"missc",
			"scale":[
				0.03833674639463425,
				0.03833674639463425,
				1
			],
			"translation":[
				-0.3150551915168762,
				0.4761260747909546,
				-1.0421355962753296
			]
		},
		{
			"name":"missc1",
			"scale":[
				0.03833674639463425,
				0.03833674639463425,
				1
			],
			"translation":[
				0.32104796171188354,
				0.4761260747909546,
				-1.04213547706604
			]
		},
		{
			"mesh":3,
			"name":"bottom_part_phongE5_0"
		},
		{
			"children":[
				8
			],
			"name":"bottom_part",
			"rotation":[
				0.70710688829422,
				0,
				0,
				0.7071066498756409
			],
			"scale":[
				0.8482787609100342,
				0.8186423182487488,
				0.8482787609100342
			],
			"translation":[
				0,
				1.6089547872543335,
				-2.457336187362671
			]
		},
		{
			"mesh":4,
			"name":"mast_mast_color_0"
		},
		{
			"children":[
				10
			],
			"name":"mast",
			"scale":[
				1,
				1.1779367923736572,
				1
			],
			"translation":[
				0,
				-0.05831936374306679,
				0
			]
		},
		{
			"mesh":5,
			"name":"sail_sail_color_0"
		},
		{
			"children":[
				12
			],
			"name":"sail.001",
			"scale":[
				0.006943117827177048,
				3.144502878189087,
				2.676063060760498
			],
			"translation":[
				0,
				2.764875650405884,
				-0.8021911382675171
			]
		},
		{
			"children":[
				9,
				11,
				13
			],
			"name":"sail"
		},
		{
			"children":[
				0,
				1,
				5,
				6,
				7,
				14
			],
			"name":"laser4_7"
		},
		{
			"children":[
				15
			],
			"name":"RootNode"
		},
		{
			"children":[
				16
			],
			"name":"49b58d772b114aad8d7b740369b29f57.fbx",
			"rotation":[
				0.70710688829422,
				0,
				0,
				0.7071066498756409
			],
			"translation":[
				0.01054476574063301,
				-0.00789614673703909,
				0.12548568844795227
			]
		},
		{
			"children":[
				17
			],
			"name":"Sketchfab_model.001",
			"rotation":[
				-0.49739524722099304,
				0.5025912523269653,
				0.5025912523269653,
				0.49739524722099304
			],
			"scale":[
				1.631008267402649,
				1.631008267402649,
				1.6310081481933594
			],
			"translation":[
				-3.2586679458618164,
				-0.6402851343154907,
				0.009479306638240814
			]
		}
	],
	"materials":[
		{
			"doubleSided":true,
			"name":"buttom_color",
			"pbrMetallicRoughness":{
				"baseColorFactor":[
					1,
					0.6284999847412109,
					0,
					1
				],
				"metallicFactor":0,
				"roughnessFactor":0.8942628502845764
			}
		},
		{
			"doubleSided":true,
			"name":"Default_Material",
			"pbrMetallicRoughness":{
				"baseColorFactor":[
					0.5,
					0.5,
					0.5,
					1
				],
				"metallicFactor":0,
				"roughnessFactor":0.6000000238418579
			}
		},
		{
			"doubleSided":true,
			"emissiveFactor":[
				0.09090910106897354,
				0.09090910106897354,
				0.09090910106897354
			],
			"name":"phongE2",
			"pbrMetallicRoughness":{
				"baseColorFactor":[
					0.7467529773712158,
					0.7467529773712158,
					0.7467529773712158,
					1
				],
				"metallicFactor":0,
				"roughnessFactor":0.8997557163238525
			}
		},
		{
			"doubleSided":true,
			"name":"phongE5",
			"pbrMetallicRoughness":{
				"baseColorFactor":[
					0.4285709857940674,
					0.4285709857940674,
					0.4285709857940674,
					1
				],
				"metallicFactor":0,
				"roughnessFactor":0.8942628502845764
			}
		},
		{
			"doubleSided":true,
			"name":"mast_color",
			"pbrMetallicRoughness":{
				"baseColorFactor":[
					0.019480500370264053,
					0.019480500370264053,
					0.019480500370264053,
					1
				],
				"metallicFactor":0,
				"roughnessFactor":0.8942628502845764
			}
		},
		{
			"doubleSided":true,
			"name":"sail_color",
			"pbrMetallicRoughness":{
				"baseColorFactor":[
					0.9545450210571289,
					0.9545450210571289,
					0.9545450210571289,
					1
				],
				"metallicFactor":0,
				"roughnessFactor":0.7885257601737976
			}
		}
	],
	"meshes":[
		{
			"name":"Laserhull_buttom_color_0",
			"primitives":[
				{
					"attributes":{
						"POSITION":0,
						"NORMAL":1,
						"TEXCOORD_0":2
					},
					"indices":3,
					"material":0
				}
			]
		},
		{
			"name":"Laserhull_Default_Material_0",
			"primitives":[
				{
					"attributes":{
						"POSITION":4,
						"NORMAL":5,
						"TEXCOORD_0":6
					},
					"indices":7,
					"material":1
				}
			]
		},
		{
			"name":"Laserhull_phongE2_0",
			"primitives":[
				{
					"attributes":{
						"POSITION":8,
						"NORMAL":9,
						"TEXCOORD_0":10
					},
					"indices":11,
					"material":2
				}
			]
		},
		{
			"name":"bottom_part_phongE5_0",
			"primitives":[
				{
					"attributes":{
						"POSITION":12,
						"NORMAL":13,
						"TEXCOORD_0":14
					},
					"indices":15,
					"material":3
				}
			]
		},
		{
			"name":"mast_mast_color_0",
			"primitives":[
				{
					"attributes":{
						"POSITION":16,
						"NORMAL":17,
						"TEXCOORD_0":18
					},
					"indices":15,
					"material":4
				}
			]
		},
		{
			"name":"sail_sail_color_0",
			"primitives":[
				{
					"attributes":{
						"POSITION":19,
						"NORMAL":20,
						"TEXCOORD_0":21
					},
					"indices":22,
					"material":5
				}
			]
		}
	],
	"accessors":[
		{
			"bufferView":0,
			"componentType":5126,
			"count":142,
			"max":[
				0.6725445985794067,
				0.5,
				0.38727501034736633
			],
			"min":[
				-0.6725445985794067,
				0.16841080784797668,
				-0.32540613412857056
			],
			"type":"VEC3"
		},
		{
			"bufferView":1,
			"componentType":5126,
			"count":142,
			"type":"VEC3"
		},
		{
			"bufferView":2,
			"componentType":5126,
			"count":142,
			"type":"VEC2"
		},
		{
			"bufferView":3,
			"componentType":5123,
			"count":363,
			"type":"SCALAR"
		},
		{
			"bufferView":4,
			"componentType":5126,
			"count":5,
			"max":[
				0.007835986092686653,
				0.5,
				0.38727501034736633
			],
			"min":[
				-0.007835986092686653,
				0.4648180305957794,
				0.38067784905433655
			],
			"type":"VEC3"
		},
		{
			"bufferView":5,
			"componentType":5126,
			"count":5,
			"type":"VEC3"
		},
		{
			"bufferView":6,
			"componentType":5126,
			"count":5,
			"type":"VEC2"
		},
		{
			"bufferView":7,
			"componentType":5123,
			"count":9,
			"type":"SCALAR"
		},
		{
			"bufferView":8,
			"componentType":5126,
			"count":34,
			"max":[
				0.6725445985794067,
				0.5,
				0.38727501034736633
			],
			"min":[
				-0.6725445985794067,
				0.4930850863456726,
				-0.32540613412857056
			],
			"type":"VEC3"
		},
		{
			"bufferView":9,
			"componentType":5126,
			"count":34,
			"type":"VEC3"
		},
		{
			"bufferView":10,
			"componentType":5126,
			"count":34,
			"type":"VEC2"
		},
		{
			"bufferView":11,
			"componentType":5123,
			"count":96,
			"type":"SCALAR"
		},
		{
			"bufferView":12,
			"componentType":5126,
			"count":84,
			"max":[
				0.052919190376996994,
				3.687869071960449,
				0.6657274961471558
			],
			"min":[
				-0.05291920155286789,
				0.46132925152778625,
				0.5598890781402588
			],
			"type":"VEC3"
		},
		{
			"bufferView":13,
			"componentType":5126,
			"count":84,
			"type":"VEC3"
		},
		{
			"bufferView":14,
			"componentType":5126,
			"count":84,
			"type":"VEC2"
		},
		{
			"bufferView":15,
			"componentType":5123,
			"count":240,
			"type":"SCALAR"
		},
		{
			"bufferView":16,
			"componentType":5126,
			"count":84,
			"max":[
				0.052919190376996994,
				3.687869071960449,
				0.6657274961471558
			],
			"min":[
				-0.05291920155286789,
				0.46132925152778625,
				0.5598890781402588
			],
			"type":"VEC3"
		},
		{
			"bufferView":17,
			"componentType":5126,
			"count":84,
			"type":"VEC3"
		},
		{
			"bufferView":18,
			"componentType":5126,
			"count":84,
			"type":"VEC2"
		},
		{
			"bufferView":19,
			"componentType":5126,
			"count":39,
			"max":[
				0.5,
				0.5,
				0.5
			],
			"min":[
				-0.5,
				-0.5,
				-0.47744032740592957
			],
			"type":"VEC3"
		},
		{
			"bufferView":20,
			"componentType":5126,
			"count":39,
			"type":"VEC3"
		},
		{
			"bufferView":21,
			"componentType":5126,
			"count":39,
			"type":"VEC2"
		},
		{
			"bufferView":22,
			"componentType":5123,
			"count":81,
			"type":"SCALAR"
		}
	],
	"bufferViews":[
		{
			"buffer":0,
			"byteLength":1704,
			"byteOffset":0,
			"target":34962
		},
		{
			"buffer":0,
			"byteLength":1704,
			"byteOffset":1704,
			"target":34962
		},
		{
			"buffer":0,
			"byteLength":1136,
			"byteOffset":3408,
			"target":34962
		},
		{
			"buffer":0,
			"byteLength":726,
			"byteOffset":4544,
			"target":34963
		},
		{
			"buffer":0,
			"byteLength":60,
			"byteOffset":5272,
			"target":34962
		},
		{
			"buffer":0,
			"byteLength":60,
			"byteOffset":5332,
			"target":34962
		},
		{
			"buffer":0,
			"byteLength":40,
			"byteOffset":5392,
			"target":34962
		},
		{
			"buffer":0,
			"byteLength":18,
			"byteOffset":5432,
			"target":34963
		},
		{
			"buffer":0,
			"byteLength":408,
			"byteOffset":5452,
			"target":34962
		},
		{
			"buffer":0,
			"byteLength":408,
			"byteOffset":5860,
			"target":34962
		},
		{
			"buffer":0,
			"byteLength":272,
			"byteOffset":6268,
			"target":34962
		},
		{
			"buffer":0,
			"byteLength":192,
			"byteOffset":6540,
			"target":34963
		},
		{
			"buffer":0,
			"byteLength":1008,
			"byteOffset":6732,
			"target":34962
		},
		{
			"buffer":0,
			"byteLength":1008,
			"byteOffset":7740,
			"target":34962
		},
		{
			"buffer":0,
			"byteLength":672,
			"byteOffset":8748,
			"target":34962
		},
		{
			"buffer":0,
			"byteLength":480,
			"byteOffset":9420,
			"target":34963
		},
		{
			"buffer":0,
			"byteLength":1008,
			"byteOffset":9900,
			"target":34962
		},
		{
			"buffer":0,
			"byteLength":1008,
			"byteOffset":10908,
			"target":34962
		},
		{
			"buffer":0,
			"byteLength":672,
			"byteOffset":11916,
			"target":34962
		},
		{
			"buffer":0,
			"byteLength":468,
			"byteOffset":12588,
			"target":34962
		},
		{
			"buffer":0,
			"byteLength":468,
			"byteOffset":13056,
			"target":34962
		},
		{
			"buffer":0,
			"byteLength":312,
			"byteOffset":13524,
			"target":34962
		},
		{
			"buffer":0,
			"byteLength":162,
			"byteOffset":13836,
			"target":34963
		}
	],
	"buffers":[
		{
			"byteLength":14000,
			"uri":"scene.bin"
		}
	]
}
