{
	"asset":{
		"generator":"Khronos glTF Blender I/O v4.2.60",
		"version":"2.0"
	},
	"extensionsUsed":[
		"KHR_materials_specular"
	],
	"scene":0,
	"scenes":[
		{
			"name":"Scene",
			"nodes":[
				6
			]
		}
	],
	"nodes":[
		{
			"mesh":0,
			"name":"Object_4"
		},
		{
			"mesh":1,
			"name":"Object_5"
		},
		{
			"mesh":2,
			"name":"Object_6"
		},
		{
			"children":[
				0,
				1,
				2
			],
			"name":"Flaga.002_0",
			"rotation":[
				0,
				0,
				-0.7071068286895752,
				0.7071067094802856
			],
			"translation":[
				0,
				12,
				0
			]
		},
		{
			"children":[
				3
			],
			"name":"GLTF_SceneRootNode",
			"rotation":[
				0.70710688829422,
				0,
				0,
				0.7071066498756409
			]
		},
		{
			"children":[
				4
			],
			"name":"root"
		},
		{
			"children":[
				5
			],
			"name":"Sketchfab_model",
			"rotation":[
				-0.70710688829422,
				0,
				0,
				0.7071066498756409
			]
		}
	],
	"materials":[
		{
			"doubleSided":true,
			"extensions":{
				"KHR_materials_specular":{
					"specularFactor":0.5104777216911316
				}
			},
			"name":"Material.002",
			"pbrMetallicRoughness":{
				"baseColorTexture":{
					"index":0
				},
				"metallicFactor":0,
				"roughnessFactor":0.42514416575431824
			}
		},
		{
			"doubleSided":true,
			"name":"Gold.002",
			"pbrMetallicRoughness":{
				"baseColorFactor":[
					0.2843630015850067,
					0.2843630015850067,
					0.2843630015850067,
					1
				],
				"roughnessFactor":0.21363599598407745
			}
		},
		{
			"doubleSided":true,
			"name":"vaje.001",
			"pbrMetallicRoughness":{
				"baseColorFactor":[
					0.09083829820156097,
					0.09083829820156097,
					0.09083829820156097,
					1
				],
				"metallicFactor":0,
				"roughnessFactor":0.5
			}
		}
	],
	"meshes":[
		{
			"name":"Object_0.001",
			"primitives":[
				{
					"attributes":{
						"POSITION":0,
						"NORMAL":1,
						"TEXCOORD_0":2
					},
					"indices":3,
					"material":0
				}
			]
		},
		{
			"name":"Object_1.001",
			"primitives":[
				{
					"attributes":{
						"POSITION":4,
						"NORMAL":5,
						"TEXCOORD_0":6
					},
					"indices":7,
					"material":1
				}
			]
		},
		{
			"name":"Object_2.001",
			"primitives":[
				{
					"attributes":{
						"POSITION":8,
						"NORMAL":9,
						"TEXCOORD_0":10
					},
					"indices":11,
					"material":2
				}
			]
		}
	],
	"textures":[
		{
			"sampler":0,
			"source":0
		}
	],
	"images":[
		{
			"mimeType":"image/png",
			"name":"Material_baseColor",
			"uri":"textures/Material_baseColor.png"
		}
	],
	"accessors":[
		{
			"bufferView":0,
			"componentType":5126,
			"count":736,
			"max":[
				1.6756908893585205,
				0.531778872013092,
				2.557570695877075
			],
			"min":[
				-1.49055814743042,
				-0.5635872483253479,
				-2.4230759143829346
			],
			"type":"VEC3"
		},
		{
			"bufferView":1,
			"componentType":5126,
			"count":736,
			"type":"VEC3"
		},
		{
			"bufferView":2,
			"componentType":5126,
			"count":736,
			"type":"VEC2"
		},
		{
			"bufferView":3,
			"componentType":5123,
			"count":3249,
			"type":"SCALAR"
		},
		{
			"bufferView":4,
			"componentType":5126,
			"count":168,
			"max":[
				12,
				0.17382816970348358,
				3.0043184757232666
			],
			"min":[
				-2.338609457015991,
				-0.1729132980108261,
				2.514464855194092
			],
			"type":"VEC3"
		},
		{
			"bufferView":5,
			"componentType":5126,
			"count":168,
			"type":"VEC3"
		},
		{
			"bufferView":6,
			"componentType":5126,
			"count":168,
			"type":"VEC2"
		},
		{
			"bufferView":7,
			"componentType":5123,
			"count":966,
			"type":"SCALAR"
		},
		{
			"bufferView":8,
			"componentType":5126,
			"count":2484,
			"max":[
				11.932048797607422,
				0.00500002084299922,
				2.726127862930298
			],
			"min":[
				-1.8747504949569702,
				-0.0050008222460746765,
				2.5192244052886963
			],
			"type":"VEC3"
		},
		{
			"bufferView":9,
			"componentType":5126,
			"count":2484,
			"type":"VEC3"
		},
		{
			"bufferView":10,
			"componentType":5126,
			"count":2484,
			"type":"VEC2"
		},
		{
			"bufferView":11,
			"componentType":5123,
			"count":2892,
			"type":"SCALAR"
		}
	],
	"bufferViews":[
		{
			"buffer":0,
			"byteLength":8832,
			"byteOffset":0,
			"target":34962
		},
		{
			"buffer":0,
			"byteLength":8832,
			"byteOffset":8832,
			"target":34962
		},
		{
			"buffer":0,
			"byteLength":5888,
			"byteOffset":17664,
			"target":34962
		},
		{
			"buffer":0,
			"byteLength":6498,
			"byteOffset":23552,
			"target":34963
		},
		{
			"buffer":0,
			"byteLength":2016,
			"byteOffset":30052,
			"target":34962
		},
		{
			"buffer":0,
			"byteLength":2016,
			"byteOffset":32068,
			"target":34962
		},
		{
			"buffer":0,
			"byteLength":1344,
			"byteOffset":34084,
			"target":34962
		},
		{
			"buffer":0,
			"byteLength":1932,
			"byteOffset":35428,
			"target":34963
		},
		{
			"buffer":0,
			"byteLength":29808,
			"byteOffset":37360,
			"target":34962
		},
		{
			"buffer":0,
			"byteLength":29808,
			"byteOffset":67168,
			"target":34962
		},
		{
			"buffer":0,
			"byteLength":19872,
			"byteOffset":96976,
			"target":34962
		},
		{
			"buffer":0,
			"byteLength":5784,
			"byteOffset":116848,
			"target":34963
		}
	],
	"samplers":[
		{
			"magFilter":9729,
			"minFilter":9987
		}
	],
	"buffers":[
		{
			"byteLength":122632,
			"uri":"scene144.bin"
		}
	]
}
