{
  "accessors": [
    {
      "bufferView": 2,
      "componentType": 5126,
      "count": 5484,
      "max": [
        1.6732397079467773,
        0.5325878262519836,
        2.555784225463867
      ],
      "min": [
        -1.49055814743042,
        -0.5646184682846069,
        -2.428868293762207
      ],
      "type": "VEC3"
    },
    {
      "bufferView": 2,
      "byteOffset": 65808,
      "componentType": 5126,
      "count": 5484,
      "max": [
        0.9632223844528198,
        0.9999968409538269,
        0.9176326990127563
      ],
      "min": [
        -0.9983587265014648,
        -0.9997972249984741,
        -0.9657687544822693
      ],
      "type": "VEC3"
    },
    {
      "bufferView": 1,
      "componentType": 5126,
      "count": 5484,
      "max": [
        1.0,
        1.0
      ],
      "min": [
        0.0,
        0.0
      ],
      "type": "VEC2"
    },
    {
      "bufferView": 0,
      "componentType": 5125,
      "count": 32511,
      "type": "SCALAR"
    },
    {
      "bufferView": 2,
      "byteOffset": 131616,
      "componentType": 5126,
      "count": 1629,
      "max": [
        12.0,
        0.17625337839126587,
        3.0056397914886475
      ],
      "min": [
        -2.338764190673828,
        -0.176254004240036,
        2.5150930881500244
      ],
      "type": "VEC3"
    },
    {
      "bufferView": 2,
      "byteOffset": 151164,
      "componentType": 5126,
      "count": 1629,
      "max": [
        1.0,
        1.0,
        1.0
      ],
      "min": [
        -1.0,
        -1.0,
        -1.0
      ],
      "type": "VEC3"
    },
    {
      "bufferView": 1,
      "byteOffset": 43872,
      "componentType": 5126,
      "count": 1629,
      "max": [
        1.0000001192092896,
        1.000000238418579
      ],
      "min": [
        0.0,
        0.0
      ],
      "type": "VEC2"
    },
    {
      "bufferView": 0,
      "byteOffset": 130044,
      "componentType": 5125,
      "count": 9696,
      "type": "SCALAR"
    },
    {
      "bufferView": 2,
      "byteOffset": 170712,
      "componentType": 5126,
      "count": 1958,
      "max": [
        11.932048797607422,
        0.00500002084299922,
        2.726127862930298
      ],
      "min": [
        -1.8747504949569702,
        -0.0050008222460746765,
        2.5192244052886963
      ],
      "type": "VEC3"
    },
    {
      "bufferView": 2,
      "byteOffset": 194208,
      "componentType": 5126,
      "count": 1958,
      "max": [
        0.9655130505561829,
        0.9659348726272583,
        0.970208466053009
      ],
      "min": [
        -0.9654995203018188,
        -0.9659343957901001,
        -0.9701995849609375
      ],
      "type": "VEC3"
    },
    {
      "bufferView": 1,
      "byteOffset": 56904,
      "componentType": 5126,
      "count": 1958,
      "max": [
        1.0,
        1.0
      ],
      "min": [
        0.0,
        0.0
      ],
      "type": "VEC2"
    },
    {
      "bufferView": 0,
      "byteOffset": 168828,
      "componentType": 5125,
      "count": 2892,
      "type": "SCALAR"
    }
  ],
  "asset": {
    "extras": {
      "author": "TinkoD (https://sketchfab.com/belenta6)",
      "license": "CC-BY-4.0 (http://creativecommons.org/licenses/by/4.0/)",
      "source": "https://sketchfab.com/3d-models/flag-466677eeb35d4b5a85e9259f579e1c63",
      "title": "Flag"
    },
    "generator": "Sketchfab-15.0.0",
    "version": "2.0"
  },
  "bufferViews": [
    {
      "buffer": 0,
      "byteLength": 180396,
      "name": "floatBufferViews",
      "target": 34963
    },
    {
      "buffer": 0,
      "byteLength": 72568,
      "byteOffset": 180396,
      "byteStride": 8,
      "name": "floatBufferViews",
      "target": 34962
    },
    {
      "buffer": 0,
      "byteLength": 217704,
      "byteOffset": 252964,
      "byteStride": 12,
      "name": "floatBufferViews",
      "target": 34962
    }
  ],
  "buffers": [
    {
      "byteLength": 470668,
      "uri": "scene.bin"
    }
  ],
  "extensionsUsed": [
    "KHR_materials_specular"
  ],
  "images": [
    {
      "uri": "textures/Material_baseColor.png"
    }
  ],
  "materials": [
    {
      "doubleSided": true,
      "extensions": {
        "KHR_materials_specular": {
          "specularColorFactor": [
            1.0,
            1.0,
            1.0
          ],
          "specularFactor": 0.5104777462178932
        }
      },
      "name": "Material",
      "pbrMetallicRoughness": {
        "baseColorTexture": {
          "index": 0
        },
        "metallicFactor": 0.0,
        "roughnessFactor": 0.42514415282027523
      }
    },
    {
      "doubleSided": true,
      "name": "Gold.001",
      "pbrMetallicRoughness": {
        "baseColorFactor": [
          0.284363,
          0.284363,
          0.284363,
          1.0
        ],
        "roughnessFactor": 0.213636
      }
    },
    {
      "doubleSided": true,
      "name": "vaje",
      "pbrMetallicRoughness": {
        "baseColorFactor": [
          0.0908383,
          0.0908383,
          0.0908383,
          1.0
        ],
        "metallicFactor": 0.0,
        "roughnessFactor": 0.5
      }
    }
  ],
  "meshes": [
    {
      "name": "Object_0",
      "primitives": [
        {
          "attributes": {
            "NORMAL": 1,
            "POSITION": 0,
            "TEXCOORD_0": 2
          },
          "indices": 3,
          "material": 0,
          "mode": 4
        }
      ]
    },
    {
      "name": "Object_1",
      "primitives": [
        {
          "attributes": {
            "NORMAL": 5,
            "POSITION": 4,
            "TEXCOORD_0": 6
          },
          "indices": 7,
          "material": 1,
          "mode": 4
        }
      ]
    },
    {
      "name": "Object_2",
      "primitives": [
        {
          "attributes": {
            "NORMAL": 9,
            "POSITION": 8,
            "TEXCOORD_0": 10
          },
          "indices": 11,
          "material": 2,
          "mode": 4
        }
      ]
    }
  ],
  "nodes": [
    {
      "children": [
        1
      ],
      "matrix": [
        1.0,
        0.0,
        0.0,
        0.0,
        0.0,
        2.220446049250313e-16,
        -1.0,
        0.0,
        0.0,
        1.0,
        2.220446049250313e-16,
        0.0,
        0.0,
        0.0,
        0.0,
        1.0
      ],
      "name": "Sketchfab_model"
    },
    {
      "children": [
        2
      ],
      "name": "root"
    },
    {
      "children": [
        3
      ],
      "matrix": [
        1.0,
        0.0,
        0.0,
        0.0,
        0.0,
        2.220446049250313e-16,
        1.0,
        0.0,
        0.0,
        -1.0,
        2.220446049250313e-16,
        0.0,
        0.0,
        0.0,
        0.0,
        1.0
      ],
      "name": "GLTF_SceneRootNode"
    },
    {
      "children": [
        4,
        5,
        6
      ],
      "matrix": [
        8.429369480200677e-08,
        -0.9999999999999966,
        -0.0,
        0.0,
        0.9999999999999966,
        8.429369480200677e-08,
        0.0,
        0.0,
        0.0,
        0.0,
        1.0,
        0.0,
        0.0,
        12.0,
        0.0,
        1.0
      ],
      "name": "Flaga.002_0"
    },
    {
      "mesh": 0,
      "name": "Object_4"
    },
    {
      "mesh": 1,
      "name": "Object_5"
    },
    {
      "mesh": 2,
      "name": "Object_6"
    }
  ],
  "samplers": [
    {
      "magFilter": 9729,
      "minFilter": 9987,
      "wrapS": 10497,
      "wrapT": 10497
    }
  ],
  "scene": 0,
  "scenes": [
    {
      "name": "Sketchfab_Scene",
      "nodes": [
        0
      ]
    }
  ],
  "textures": [
    {
      "sampler": 0,
      "source": 0
    }
  ]
}
